
<svg viewBox="0 0 42.4 42.4" version="1.1"
    xmlns="http://www.w3.org/2000/svg" xmlns:xlink="http://www.w3.org/1999/xlink">
    <title>069-graph copy</title>
    <g id="Anasayfa" stroke="none" stroke-width="1" fill="none" fill-rule="evenodd">
        <g id="Yeni-Anasayfa" transform="translate(-936.300000, -2245.300000)" fill="#FFFFFF"
            fill-rule="nonzero">
            <g id="Group-56" transform="translate(150.000000, 2195.000000)">
                <g id="Group-77" transform="translate(786.300000, 50.300000)">
                    <path
                        d="M20.3429014,0.0226944149 C21.0442416,0.0578110503 21.6187519,0.621762072 21.6516404,1.33752404 C21.6866162,2.09871224 21.097964,2.74413249 20.3367848,2.77917682 C10.4805631,3.23275937 2.759375,11.3245266 2.759375,21.2 C2.759375,31.3684764 11.0315236,39.640625 21.2,39.640625 C31.3684764,39.640625 39.640625,31.3684764 39.640625,21.2 C39.640625,20.437994 40.2583065,19.8203125 41.0203125,19.8203125 C41.7823185,19.8203125 42.4,20.437994 42.4,21.2 C42.4,26.8632596 40.1952061,32.1861501 36.1907173,36.1907217 C32.1860457,40.1952277 26.863229,42.4 21.2,42.4 C15.536771,42.4 10.2139543,40.1952277 6.20927608,36.1907151 C2.20479389,32.1861501 9.23705556e-14,26.8632596 9.23705556e-14,21.2 C9.23705556e-14,15.7094939 2.0902474,10.503557 5.88645406,6.53923002 C9.67049463,2.58764849 14.7567559,0.273709265 20.210097,0.0226944149 Z M14.7596885,8.02391636 C14.9731369,7.33921922 15.6708382,6.93928689 16.3586465,7.08366895 L16.4874081,7.11719326 C17.2148654,7.34388122 17.6208911,8.11742308 17.3942189,8.84483 C16.2274326,12.5887025 15.5119167,15.9068004 15.3195821,19.5042963 L15.3026868,19.8203125 L18.8064453,19.8203125 C19.5684513,19.8203125 20.1861328,20.437994 20.1861328,21.2 C20.1861328,21.962006 19.5684513,22.5796875 18.8064453,22.5796875 L15.3029055,22.5796875 L15.319924,22.8958145 C15.5134595,26.4908263 16.2328587,29.8070498 17.4066205,33.5530982 C17.6344813,34.2802109 17.2297368,35.0544119 16.5026786,35.2821867 C16.3672882,35.324594 16.228282,35.3457324 16.0896348,35.3457324 C15.4917454,35.3457324 14.9552456,34.9578259 14.7735633,34.3782052 C13.5120895,30.3527232 12.7455114,26.773405 12.5553094,22.8651049 L12.5414193,22.5796875 L8.0984375,22.5796875 C7.33643152,22.5796875 6.71875,21.962006 6.71875,21.2 C6.71875,20.437994 7.33643152,19.8203125 8.0984375,19.8203125 L12.5412554,19.8203125 L12.555062,19.5348029 C12.744085,15.6259488 13.5060018,12.0472633 14.7596885,8.02391636 Z M28.367,22.9262285 L28.5026096,22.9329252 C29.2491723,22.9964819 29.8125034,23.6642482 29.7480725,24.4234839 C29.4745907,27.6472164 28.8126032,30.903068 27.7235999,34.3782267 C27.5419268,34.9577502 27.0053298,35.3457324 26.4075352,35.3457324 C26.268666,35.3457324 26.1298762,35.324639 25.9945656,35.28221 C25.2673373,35.0543345 24.8626206,34.2802079 25.0905381,33.5531345 C26.1179903,30.2741107 26.7423599,27.211091 26.9985597,24.1902526 C27.0591547,23.4753868 27.6538885,22.9344919 28.3569049,22.9271516 L28.367,22.9262285 Z"
                        id="Combined-Shape"></path>
                    <path
                        d="M33.1667969,-2.30926389e-14 C33.9288029,-2.30926389e-14 34.5464844,0.617681519 34.5464844,1.3796875 L34.5464844,2.91525675 L34.7822581,2.96693106 C35.4546518,3.11429897 36.1668856,3.33080367 36.93756,3.63048881 C37.6476726,3.90662839 37.9994944,4.7062329 37.7233461,5.41643679 C37.4471951,6.12650973 36.6474833,6.47841197 35.9374339,6.202228 C34.5335738,5.65628651 33.5290005,5.4748418 32.4529297,5.4748418 C31.5224765,5.4748418 30.7671875,6.23777788 30.7671875,7.17460937 C30.7671875,8.1393948 31.7177889,8.81367863 32.9953229,8.87048822 L33.1715,8.87437695 C35.8800638,8.87437695 38.0738281,10.8812122 38.0738281,13.3334355 C38.0738281,14.5294998 37.5894979,15.6545053 36.7075222,16.5044193 C36.1556605,17.0362218 35.4908529,17.4175268 34.7651776,17.6216205 L34.5464004,17.6831508 L34.5464004,18.8484375 C34.5464004,19.6104435 33.9287189,20.228125 33.1667129,20.228125 C32.4047069,20.228125 31.7870254,19.6104435 31.7870254,18.8484375 L31.7870254,17.6118974 L31.5441848,17.5647652 C30.5867191,17.3789336 29.6039321,17.0986479 28.709874,16.7432479 C28.0018043,16.461786 27.6559297,15.6595457 27.9373835,14.9514273 C28.2187578,14.2434043 29.0209721,13.8975531 29.7291391,14.1789573 C31.0680857,14.711251 32.6603588,15.0332031 33.5307012,15.0332031 C34.4830582,15.0332031 35.3144531,14.2488592 35.3144531,13.3334355 C35.3144531,12.4332629 34.4133668,11.7060417 33.334563,11.6388237 L33.1715,11.633752 C30.2138544,11.633752 28.0078125,9.71219229 28.0078125,7.17460937 C28.0078125,5.05439587 29.5027868,3.23438973 31.5482582,2.80852224 L31.7871094,2.75879338 L31.7871094,1.3796875 C31.7871094,0.617681519 32.4047909,-2.30926389e-14 33.1667969,-2.30926389e-14 Z"
                        id="Combined-Shape"></path>
                </g>
            </g>
        </g>
    </g>
</svg>