
<svg viewBox="0 0 42.4 42.4" version="1.1"
    xmlns="http://www.w3.org/2000/svg" xmlns:xlink="http://www.w3.org/1999/xlink">
    <title>Group 76</title>
    <g id="Anasayfa" stroke="none" stroke-width="1" fill="none" fill-rule="evenodd">
        <g id="Yeni-Anasayfa" transform="translate(-467.300000, -2245.300000)" fill="#FFFFFF"
            fill-rule="nonzero">
            <g id="Group-56" transform="translate(150.000000, 2195.000000)">
                <g id="Group-20" transform="translate(220.000000, 50.300000)">
                    <g id="Group-76" transform="translate(97.300000, 0.000000)">
                        <path
                            d="M36.4851563,-2.13162821e-14 C39.7463693,-2.13162821e-14 42.4,2.65363074 42.4,5.91484375 L42.4,36.4851562 C42.4,39.7463693 39.7463693,42.4 36.4851563,42.4 C33.2239432,42.4 30.5703125,39.7463693 30.5703125,36.4851562 L30.5703125,5.91484375 C30.5703125,2.65363074 33.2239432,-2.13162821e-14 36.4851563,-2.13162821e-14 Z M5.91484375,23.6835937 C9.17605676,23.6835937 11.8296875,26.3372245 11.8296875,29.5984375 L11.8296875,36.4851562 C11.8296875,39.7463693 9.17605676,42.4 5.91484375,42.4 C2.65363074,42.4 9.05941988e-14,39.7463693 9.05941988e-14,36.4851562 L9.05941988e-14,29.5984375 C9.05941988e-14,26.3372245 2.65363074,23.6835937 5.91484375,23.6835937 Z M21.2,11.6738281 C24.461213,11.6738281 27.1148438,14.3274589 27.1148438,17.5886719 L27.1148438,36.4851562 C27.1148438,39.7463693 24.461213,42.4 21.2,42.4 C17.938787,42.4 15.2851563,39.7463693 15.2851563,36.4851562 L15.2851563,17.5886719 C15.2851563,14.3274589 17.938787,11.6738281 21.2,11.6738281 Z M36.4851563,2.759375 C34.7449318,2.759375 33.3296875,4.17461926 33.3296875,5.91484375 L33.3296875,36.4851562 C33.3296875,38.2253807 34.7449318,39.640625 36.4851563,39.640625 C38.2253807,39.640625 39.640625,38.2253807 39.640625,36.4851562 L39.640625,5.91484375 C39.640625,4.17461926 38.2253807,2.759375 36.4851563,2.759375 Z M5.91484375,26.4429687 C4.17461926,26.4429687 2.759375,27.858213 2.759375,29.5984375 L2.759375,36.4851562 C2.759375,38.2253807 4.17461926,39.640625 5.91484375,39.640625 C7.65506824,39.640625 9.0703125,38.2253807 9.0703125,36.4851562 L9.0703125,29.5984375 C9.0703125,27.858213 7.65506824,26.4429687 5.91484375,26.4429687 Z M21.2,14.4332031 C19.4597755,14.4332031 18.0445313,15.8484474 18.0445313,17.5886719 L18.0445313,36.4851562 C18.0445313,38.2253807 19.4597755,39.640625 21.2,39.640625 C22.9402245,39.640625 24.3554688,38.2253807 24.3554688,36.4851562 L24.3554688,17.5886719 C24.3554688,15.8484474 22.9402245,14.4332031 21.2,14.4332031 Z"
                            id="Combined-Shape"></path>
                        <path
                            d="M6.16679687,-2.30926389e-14 C6.92880286,-2.30926389e-14 7.54648437,0.617681519 7.54648437,1.3796875 L7.54648437,2.91525675 L7.78225812,2.96693106 C8.45465182,3.11429897 9.16688564,3.33080367 9.93756003,3.63048881 C10.6476726,3.90662839 10.9994944,4.7062329 10.7233461,5.41643679 C10.4471951,6.12650973 9.64748326,6.47841197 8.93743387,6.202228 C7.53357381,5.65628651 6.52900048,5.4748418 5.45292969,5.4748418 C4.52247652,5.4748418 3.7671875,6.23777788 3.7671875,7.17460937 C3.7671875,8.1393948 4.71778894,8.81367863 5.99532295,8.87048822 L6.1715,8.87437695 C8.8800638,8.87437695 11.0738281,10.8812122 11.0738281,13.3334355 C11.0738281,14.5294998 10.5894979,15.6545053 9.70752216,16.5044193 C9.15566052,17.0362218 8.49085295,17.4175268 7.76517763,17.6216205 L7.54640039,17.6831508 L7.54640039,18.8484375 C7.54640039,19.6104435 6.92871887,20.228125 6.16671289,20.228125 C5.40470691,20.228125 4.78702539,19.6104435 4.78702539,18.8484375 L4.78702539,17.6118974 L4.54418483,17.5647652 C3.58671907,17.3789336 2.6039321,17.0986479 1.70987403,16.7432479 C1.0018043,16.461786 0.655929743,15.6595457 0.937383492,14.9514273 C1.21875781,14.2434043 2.02097205,13.8975531 2.72913908,14.1789573 C4.06808571,14.711251 5.66035876,15.0332031 6.53070117,15.0332031 C7.48305817,15.0332031 8.31445312,14.2488592 8.31445312,13.3334355 C8.31445312,12.4332629 7.41336681,11.7060417 6.33456303,11.6388237 L6.1715,11.633752 C3.21385444,11.633752 1.0078125,9.71219229 1.0078125,7.17460937 C1.0078125,5.05439587 2.50278684,3.23438973 4.54825817,2.80852224 L4.78710937,2.75879338 L4.78710937,1.3796875 C4.78710937,0.617681519 5.40479089,-2.30926389e-14 6.16679687,-2.30926389e-14 Z"
                            id="Combined-Shape"></path>
                    </g>
                </g>
            </g>
        </g>
    </g>
</svg>