
<svg viewBox="0 0 37.4 42.4" version="1.1"
    xmlns="http://www.w3.org/2000/svg" xmlns:xlink="http://www.w3.org/1999/xlink">
    <title>Group 83</title>
    <g id="Anasayfa" stroke="none" stroke-width="1" fill="none" fill-rule="evenodd">
        <g id="Yeni-Anasayfa" transform="translate(-1402.300000, -2244.300000)" fill="#FFFFFF"
            fill-rule="nonzero">
            <g id="Group-56" transform="translate(150.000000, 2195.000000)">
                <g id="Group-21" transform="translate(1156.000000, 49.300000)">
                    <g id="Group-83" transform="translate(96.300000, 0.000000)">
                        <path
                            d="M17.4836645,26.0351563 C19.172799,26.0351563 20.8310077,26.3150532 22.4126361,26.8670629 C23.1311436,27.1178377 23.5106902,27.9046066 23.2600593,28.6241336 C23.0095338,29.3436248 22.2240357,29.7234548 21.5057828,29.4726758 C20.2162613,29.0226915 18.8629036,28.7945313 17.4836645,28.7945313 L14.9671082,28.7945313 C8.23321531,28.7945313 2.75540839,34.2788138 2.75540839,41.0203125 C2.75540839,41.7823978 2.1385354,42.4 1.37770419,42.4 C0.616872988,42.4 -3.64153152e-13,41.7823978 -3.64153152e-13,41.0203125 C-3.64153152e-13,32.7576667 6.71457277,26.0351563 14.9671082,26.0351563 L17.4836645,26.0351563 Z M16.0576159,5.32907052e-15 C22.1361822,5.32907052e-15 27.0821192,4.95178387 27.0821192,11.0378906 C27.0821192,17.1239974 22.1361822,22.0757813 16.0576159,22.0757813 C9.97904959,22.0757813 5.03311258,17.1239974 5.03311258,11.0378906 C5.03311258,4.95178387 9.97904959,5.32907052e-15 16.0576159,5.32907052e-15 Z M16.0576159,2.759375 C11.4976921,2.759375 7.78852097,6.47293098 7.78852097,11.0378906 C7.78852097,15.6028503 11.4976921,19.3164063 16.0576159,19.3164063 C20.6175397,19.3164063 24.3267108,15.6028503 24.3267108,11.0378906 C24.3267108,6.47293098 20.6175397,2.759375 16.0576159,2.759375 Z"
                            id="Combined-Shape"></path>
                        <path
                            d="M29.311479,26.203125 C30.0723102,26.203125 30.6891832,26.8207272 30.6891832,27.5828125 L30.6891832,32.921875 L36.0222958,32.921875 C36.783127,32.921875 37.4,33.5394772 37.4,34.3015625 C37.4,35.0636478 36.783127,35.68125 36.0222958,35.68125 L30.6891832,35.68125 L30.6891832,41.0203125 C30.6891832,41.7823978 30.0723102,42.4 29.311479,42.4 C28.5506478,42.4 27.9337748,41.7823978 27.9337748,41.0203125 L27.9337748,35.68125 L22.6006623,35.68125 C21.839831,35.68125 21.2229581,35.0636478 21.2229581,34.3015625 C21.2229581,33.5394772 21.839831,32.921875 22.6006623,32.921875 L27.9337748,32.921875 L27.9337748,27.5828125 C27.9337748,26.8207272 28.5506478,26.203125 29.311479,26.203125 Z"
                            id="Combined-Shape"></path>
                    </g>
                </g>
            </g>
        </g>
    </g>
</svg>