<svg  viewBox="0 0 52 52" version="1.1" xmlns="http://www.w3.org/2000/svg"
    xmlns:xlink="http://www.w3.org/1999/xlink">
    <title>Group 72</title>
    <g id="Anasayfa" stroke="none" stroke-width="1" fill="none" fill-rule="evenodd">
        <g id="Yeni-Anasayfa" transform="translate(-387.000000, -1716.000000)" fill-rule="nonzero">
            <g id="Group-72" transform="translate(387.000000, 1716.000000)">
                <path
                    d="M25.9999978,0 C27.9415719,0 29.6773931,1.06634488 30.537586,2.78651153 L32.7603087,7.23083209 C33.1030095,7.91623593 33.7663879,8.39003452 34.5334796,8.50010877 L39.5034626,9.21286092 C41.4332625,9.48964326 42.9981399,10.7978693 43.5955454,12.6325484 C44.1896536,14.4573646 43.6969552,16.4158895 42.3068542,17.7529779 L38.7105668,21.212454 C38.1589484,21.7430934 37.9063087,22.5072958 38.0364515,23.2562542 L38.885504,28.1409177 C39.2130075,30.0253394 38.4500784,31.8932996 36.890405,33.0240847 C36.0089312,33.6634806 34.9677916,34 33.9026144,34 C33.0897076,34 32.2836814,33.8038346 31.5445435,33.4203701 L27.099365,31.1140121 C26.4107536,30.7567883 25.5894038,30.7567883 24.9009299,31.1140203 L20.4556573,33.4202683 C18.728148,34.316554 16.6829737,34.1650018 15.1096128,33.0242051 C13.5499766,31.8933806 12.7869997,30.0253905 13.1144936,28.1411148 L13.9635388,23.2561808 C14.093691,22.5073226 13.8410606,21.7431046 13.2895343,21.2125588 L9.69316776,17.7530032 C8.30302592,16.4158756 7.81034517,14.4574459 8.40446333,12.6325083 C9.00175621,10.7978027 10.5666789,9.48955996 12.4965089,9.21286439 L17.4664547,8.50011757 C18.2336888,8.39002289 18.8971835,7.91625443 19.2397805,7.23074922 L21.4623961,2.78653862 C22.3227082,1.06631676 24.0584583,0 25.9999978,0 Z M26.0002079,2.69032925 C25.1679869,2.69032925 24.3539881,3.0501079 23.8870211,3.98382581 L21.6643148,8.42821788 C20.9263201,9.90396251 19.5017044,10.9265131 17.8532368,11.1628729 L12.8832934,11.8756194 C11.8363892,12.0257889 11.2350002,12.6790419 10.9804857,13.4606904 C10.7292207,14.232781 10.8284466,15.1003584 11.5762627,15.8197879 L15.1725472,19.2792613 C16.3689454,20.42999 16.9141305,22.0875596 16.6315474,23.7139317 L15.7825088,28.5988283 C15.6062362,29.6129812 16.0432127,30.3705523 16.705581,30.8506552 C17.3812621,31.340577 18.260859,31.5241284 19.2030609,31.0350635 L23.6481349,28.728864 C24.3764349,28.3511048 25.1833041,28.1560241 26.0001028,28.1560241 C26.8171071,28.1560241 27.6236384,28.3510463 28.3524314,28.7290963 L32.7974765,31.0353353 C33.7399522,31.5240506 34.6197848,31.3405113 35.2951028,30.8505652 C35.9572063,30.3706543 36.3941722,29.6130625 36.2179091,28.5988406 L35.3688602,23.7140941 C35.0862848,22.0875841 35.6314559,20.4301078 36.827938,19.2792955 L40.4241377,15.8198027 C41.1719691,15.1003584 41.271195,14.232781 41.0199668,13.4608034 C40.7654155,12.6790419 40.1640266,12.0257889 39.1171443,11.8756225 L34.1472007,11.162876 C32.4987368,10.9265168 31.0742042,9.90398322 30.3361011,8.4281139 L28.1133917,3.98382004 C27.6464277,3.0501079 26.8324288,2.69032925 26.0002079,2.69032925 Z"
                    id="Combined-Shape" fill="#5E6676"></path>
                <path
                    d="M9.12005268,34.3748218 C9.64881475,34.8785214 9.65374888,35.7000078 9.13096011,36.2096278 C8.55090974,36.7749849 7.77829423,37.1503684 6.96007578,37.2641856 L3.65410433,37.7239125 C3.25796461,37.7789377 2.91111231,37.9705967 2.748976,38.4530592 C2.63100382,38.8042809 2.70474768,39.1358063 2.90004856,39.3908435 C2.94551358,39.4502148 2.98687395,39.4930892 3.03042516,39.5333126 L5.42333423,41.7654138 C6.3252514,42.6067561 6.73611779,43.8185328 6.52304795,45.0078928 L5.95350386,48.1872483 C5.91345546,48.4400162 5.95244526,48.7004902 6.14645055,48.9539598 C6.2150474,49.0435822 6.2987523,49.1230014 6.39564473,49.1911185 C6.75353362,49.4428231 7.19434608,49.4738064 7.58706828,49.2766944 L10.5446944,47.7887694 C11.653455,47.2309438 12.9777887,47.2309438 14.0865353,47.7887623 L17.0435289,49.2764702 C17.4365474,49.4738754 17.8771664,49.4428249 18.2351691,49.1915211 C18.3324914,49.1231021 18.4161963,49.0436829 18.4847932,48.9540605 C18.6510834,48.7368008 18.7034848,48.514395 18.6898429,48.296107 L18.6729595,48.159215 L18.1081864,45.0080415 C17.8951251,43.8186453 18.3059856,42.606863 19.2079209,41.7655039 L21.6000828,39.5341005 C22.1343001,39.0357197 22.9867967,39.0490422 23.5037265,39.563845 C24.0210524,40.0787785 24.0071869,40.9001666 23.4728894,41.3984967 L21.0806832,43.6299413 C20.8208405,43.8722895 20.7000354,44.2222112 20.7615632,44.5662245 L21.326328,47.7172511 C21.5733276,49.0955726 20.9986659,50.4605921 19.8227001,51.2874204 C19.1584302,51.754311 18.3744657,52 17.5729712,52 C16.961109,52 16.3543527,51.8567973 15.797316,51.5765907 L12.8403633,50.0889034 C12.5110638,49.9238107 12.1200755,49.9238107 11.7917287,50.0884249 L8.83377811,51.5766134 C7.53266593,52.2312472 5.99355875,52.1205894 4.80844097,51.287321 C3.63247337,50.4604914 3.0578117,49.0954719 3.30481467,47.7171313 L3.86953198,44.5662697 C3.93112271,44.2222217 3.81024847,43.8724416 3.55075017,43.6301151 L1.15828274,41.3984267 C0.109874376,40.420508 -0.261304634,38.9893303 0.186883008,37.6544732 C0.637142631,36.3131765 1.81528788,35.3577608 3.26948063,35.1556186 L6.57542356,34.6958812 C6.81777234,34.6620566 7.04366254,34.5532562 7.21575626,34.3856201 C7.73878015,33.8758359 8.59109259,33.8710618 9.12005268,34.3748218 Z M44.6752893,34.290123 L44.7840236,34.3853002 C44.9563973,34.5532092 45.182347,34.6619998 45.4244384,34.6957461 L48.7304779,35.1555115 C50.1847169,35.3576602 51.3628622,36.3130758 51.8131084,37.6543326 C52.2613094,38.9892296 51.8901304,40.4204073 50.8417314,41.3983173 L48.4495487,43.62974 C48.1897491,43.8723477 48.068916,44.2220942 48.1304287,44.5660232 L48.6951935,47.7170497 C48.9421931,49.0953713 48.3675314,50.4603908 47.1915656,51.2872191 C46.5274806,51.7542074 45.7436308,51.9998308 44.9418367,51.9998308 C44.3300143,51.9998308 43.7232519,51.8566129 43.1661815,51.5763893 L40.2092288,50.0887021 C39.8799293,49.9236093 39.488941,49.9236093 39.1605942,50.0882236 L36.2026436,51.5764121 C34.9014695,52.2310771 33.3623839,52.1204442 32.1773354,51.28714 C31.0013389,50.4602901 30.4266772,49.0952706 30.6736802,47.71693 L31.2383975,44.5660684 C31.3000033,44.2219362 31.179157,43.8719808 30.9192858,43.629606 L28.5271483,41.3982253 C27.9928179,40.8998646 27.9789524,40.0784765 28.496146,39.5636747 C29.0132658,39.0487476 29.8656064,39.0353867 30.3999201,39.5337968 L32.7920953,41.7652125 C33.6940124,42.6065547 34.1048788,43.8183315 33.891809,45.0076914 L33.3222649,48.187047 C33.2822165,48.4398148 33.3212063,48.7002889 33.5152116,48.9537585 C33.5838085,49.0433809 33.6675134,49.1228001 33.7644058,49.1909172 C34.1223958,49.4427681 34.5633374,49.4737663 34.9562083,49.2763027 L37.9134554,47.7885681 C39.022125,47.2307443 40.3465533,47.2307443 41.4552963,47.788561 L44.41229,49.2762688 C44.8053521,49.473696 45.2461993,49.4426354 45.6041605,49.1911581 C45.7012525,49.1229008 45.7849574,49.0434815 45.8535542,48.9538591 C46.0198445,48.7365995 46.0722458,48.5141937 46.0586039,48.2959056 L46.0417205,48.1590137 L45.4769474,45.0078402 C45.2638862,43.818444 45.6747467,42.6066617 46.5766819,41.7653026 L48.9688439,39.5338992 L49.055599,39.4451534 C49.0701023,39.4284907 49.0848012,39.4105332 49.0999562,39.3907428 C49.2952571,39.1357057 49.369001,38.8041802 49.2510625,38.4530589 C49.0888925,37.970496 48.7420402,37.778837 48.3457838,37.7237956 L45.0400038,37.2640808 C44.2217217,37.1502669 43.4491051,36.7748941 42.8690068,36.2094902 C42.3462559,35.6999072 42.35119,34.8784208 42.8800194,34.3746571 C43.3735065,33.9045604 44.1491381,33.8773805 44.6752893,34.290123 Z"
                    id="Combined-Shape" fill="#F6771A"></path>
            </g>
        </g>
    </g>
</svg>