<svg xmlns="http://www.w3.org/2000/svg" width="25" height="24" viewBox="0 0 25 24">
    <g>
        <g>
            <path fill="#f77007"
                d="M13.801 18l-.939.332L12.16 18v-.565h1.641zm-1.64-2.066h1.64v.649h-1.64zm2.962-10.023V5.06h2.39v.852zm-7.636 0V5.06h2.39v.852zm.744-2.302c0-1.52 1.155-2.756 2.575-2.756h3.388c1.42 0 2.575 1.236 2.575 2.756v.597h-.903V3.61c0-.968-.722-1.76-1.62-1.79-.208.015-.372.19-.372.426s.178.426.398.426h-.078c.483 0 .876.421.876.938v.597h-.345c-.22 0-.399.191-.399.427v1.279h-3.653v-1.28c0-.235-.178-.426-.398-.426H9.93V3.61c0-.517.393-.938.876-.938h1.614c.22 0 .399-.19.399-.426 0-.245-.179-.426-.399-.426h-1.614c-.922 0-1.672.803-1.672 1.79v.597H8.23zm14.247 2.302h-4.169V4.633c0-.236-.178-.427-.398-.427h-.345V3.61C17.566 1.62 16.053 0 14.194 0h-3.388C8.947 0 7.435 1.62 7.435 3.61v.596h-.346c-.22 0-.398.191-.398.427v1.279H5.17c-.171 0-.398.19-.398.426 0 .235.227.426.398.426h17.307c.951 0 1.725.829 1.725 1.848v2.751c0 .881-.586 1.637-1.39 1.812l-8.65 1.907h-2.364L2.19 13.176C1.383 13 .797 12.244.797 11.363V8.611c0-1.018.774-1.847 1.725-1.847h.8c.22 0 .399-.19.399-.426s-.179-.427-.399-.427h-.8C1.132 5.911 0 7.123 0 8.611v2.752c0 .894.413 1.704 1.062 2.2V21.3c0 1.489 1.132 2.7 2.522 2.7H17.3c.22 0 .398-.19.398-.426s-.178-.427-.398-.427H3.584c-.951 0-1.725-.828-1.725-1.847V14H2l9.364 1.863v2.477c0 .186.113.35.28.406l1.1.44c.038.012.078.019.118.019.04 0 .08-.007.138-.02l1.318-.439a.424.424 0 0 0 .28-.406v-2.477L23 14h.141v7.3c0 1.019-.774 1.847-1.725 1.847h-2.253c-.22 0-.398.191-.398.427 0 .235.178.426.398.426h2.253c1.39 0 2.522-1.211 2.522-2.7v-7.737a2.766 2.766 0 0 0 1.062-2.2V8.611c0-1.488-1.132-2.7-2.522-2.7z" />
        </g>
    </g>
</svg>