<svg xmlns="http://www.w3.org/2000/svg" width="28" height="21" viewBox="0 0 28 21">
    <g>
        <g>
            <path fill="#f56d08"
                d="M18.703 9.154a.543.543 0 0 1-.547.538.543.543 0 0 1-.547-.538c0-.298.245-.539.547-.539.302 0 .547.241.547.539zm5.444 5.59a.541.541 0 0 1-.2-.744.556.556 0 0 1 .747-.19l1.42.808a.534.534 0 0 1 .201.736.552.552 0 0 1-.747.197zm.547-10.232a.552.552 0 0 1-.747-.197.534.534 0 0 1 .2-.736l1.421-.807a.536.536 0 0 1 .747.228c.151.227.061.556-.2.705zm1.119 4.103h1.64c.302 0 .547.241.547.539a.543.543 0 0 1-.547.538h-1.64a.543.543 0 0 1-.547-.538c0-.298.244-.539.547-.539zM0 10.77V7.54c0-1.485 1.227-2.693 2.734-2.693H8.75c2.437 0 6.345-.591 9.167-1.846 1.023-.515 1.434-.857 1.88-1.134V.538c0-.297.203-.538.547-.538.302 0 .547.241.547.538v5.59l1.885.929c.224.091.302.277.302.481v3.231c0 .231-.078.39-.302.482l-1.885.928v5.59a.543.543 0 0 1-.547.539.518.518 0 0 1-.547-.539v-1.327c-.444-.276-.855-.618-1.88-1.09-2.822-1.299-6.73-1.89-9.167-1.89H7.656v5.384C7.656 20 6.675 21 5.47 21S3.28 20 3.28 18.846v-5.384h-.547C1.227 13.462 0 12.254 0 10.769zm6.563 2.693H4.374v5.384c0 .594.49 1.077 1.094 1.077.603 0 1.093-.483 1.093-1.077V17.77H6a.54.54 0 0 1 0-1.077h.563v-1.077H6a.54.54 0 0 1 0-1.077h.563zm14.328-6.13V11L22 10.436V7.871zm-2.188-3.555v2.954c0 .269-.245.538-.547.538a.562.562 0 0 1-.547-.538V4.26c-2.664 1.054-5.978 1.581-8.312 1.654v6.48c2.334.073 5.648.606 8.312 1.606v-2.423c0-.297.245-.577.547-.577.302 0 .547.28.547.577v2.953c.402.199.769.406 1.094.618V3.16c-.325.212-.692.42-1.094.617zM1.093 10.77c0 .891.737 1.616 1.641 1.616h5.47V5.923h-5.47c-.904 0-1.64.725-1.64 1.615z" />
        </g>
    </g>
</svg>