<svg xmlns="http://www.w3.org/2000/svg" width="30" height="30" viewBox="0 0 30 30">
    <g>
        <g>
            <path fill="#f56d08"
                d="M30 19.5v10a.5.5 0 0 1-.5.5H.5a.5.5 0 0 1-.5-.5v-9a.5.5 0 0 1 .5-.5H5v-.5A1.5 1.5 0 0 1 6.5 18h2a1.5 1.5 0 0 1 1.5 1.5v.5h3v-.5c0-1.932 1.568-3.5 3.5-3.5H19v-.55A5.886 5.886 0 0 1 15.586 11H15a1.5 1.5 0 1 1 0-3h.5V4.5A4.493 4.493 0 0 1 20 0h7.5v8h.5a1.5 1.5 0 1 1 0 3h-.586A5.886 5.886 0 0 1 24 15.45V16h2.5c1.932 0 3.5 1.568 3.5 3.5zM27.5 10h.5a.5.5 0 0 0 0-1h-.5zm-12-1H15a.5.5 0 0 0 0 1h.5zm8.207 8l-1.5 1.5 1.239 1.239L25.5 17zM21.5 19.207l-.793.793.5.5h.586l.5-.5zm0-1.414l.793-.793h-1.586zM16.5 6h4A1.5 1.5 0 0 0 22 4.5V4h4.5V1H20a3.503 3.503 0 0 0-3.5 3.5zm3.182 8.654a.5.5 0 0 1 .318.466V16h3v-.88a.5.5 0 0 1 .318-.466A4.97 4.97 0 0 0 26.5 10V5H23c-.29 1.163-1.312 2-2.5 2h-4v3a4.97 4.97 0 0 0 3.182 4.654zM17.5 17l2.054 2.739 1.239-1.239-1.5-1.5zM6 20h3v-.5a.5.5 0 0 0-.5-.5h-2a.5.5 0 0 0-.5.5zm8 5.5H9V27a.5.5 0 0 1-.5.5h-2A.5.5 0 0 1 6 27v-1.5H1V29h13zm-6 1v-1H7v1zm6-5.5H1v3.5h13zm6.875 8L19.6 27.3a.5.5 0 0 1-.093-.382l.957-5.746-.464-.465-.146.146A.5.5 0 0 1 19.5 21h-.036a.468.468 0 0 1-.364-.2L16.268 17C15 17.14 14 18.213 14 19.5v.5h.5a.5.5 0 0 1 .5.5V29zm.625-.834l.972-1.295-.896-5.371h-.152l-.895 5.371zM29 19.5c0-1.287-1-2.36-2.268-2.5L23.9 20.8a.468.468 0 0 1-.364.2H23.5a.5.5 0 0 1-.354-.147L23 20.707l-.464.465.957 5.746a.5.5 0 0 1-.093.382L22.125 29H29zm-5.5-8v.5a2 2 0 0 1-4 0v-.5h1v.5a1 1 0 1 0 2 0v-.5zm2-2v.5h-1v-.5a.5.5 0 0 0-1 0v.5h-1v-.5a1.5 1.5 0 1 1 3 0zm-5 0v.5h-1v-.5a.5.5 0 0 0-1 0v.5h-1v-.5a1.5 1.5 0 1 1 3 0z" />
        </g>
    </g>
</svg>