<svg xmlns="http://www.w3.org/2000/svg" width="30" height="25" viewBox="0 0 30 25">
    <g>
        <g>
            <path fill="#f56d08"
                d="M22.923 10.24V9.144l6.186-2.396v1.098zm1.354 7.01c-.434.344-.887.662-1.354.953V11.21l1.354-.525zm-8.831-4.113V12L22 9.488v1.098zM.89 6.747L14.554 12v1.137L.891 7.845zM23.28 23.224c0 .449-.36.776-.802.776-.478 0-.802-.327-.802-.776 0-.45.324-.815.802-.815a.81.81 0 0 1 .802.815zM20.227 2a.42.42 0 0 0-.576.254.455.455 0 0 0 .258.585l8.395 3.25-5.812 2.252L15.184 5c-.184-.124-.488 0-.59.205a.456.456 0 0 0 .222.599l6.503 2.991L15 11.243 1.696 6.09 15 .937l3.278 1.27a.444.444 0 0 0 .576-.262.455.455 0 0 0-.258-.584L15.159 0h-.318L.287 5.667A.453.453 0 0 0 0 6.09v2.067c0 .187.114.356.287.423l4.545 1.76v1.568c0 .25.168.453.445.453a.45.45 0 0 0 .446-.453v-1.223l9.118 3.532a.441.441 0 0 0 .318 0L22 11.555v7.163a14.749 14.749 0 0 1-7 1.767c-3.35 0-6.636-1.147-9.277-3.235V13.72a.45.45 0 0 0-.446-.453c-.277 0-.445.203-.445.453v3.75c0 .138.061.268.168.354a15.89 15.89 0 0 0 10 3.568c2.443 0 4.854-.577 7-1.658v1.832c-.686.199-1.215.867-1.215 1.659 0 .948.76 1.72 1.693 1.72s1.693-.772 1.693-1.72c0-.792-.53-1.46-1.248-1.66v-2.31c.726-.42 1.422-.897 2.077-1.431a.452.452 0 0 0 .169-.353v-7.13l4.544-1.76A.452.452 0 0 0 30 8.157V6.09a.453.453 0 0 0-.287-.423z" />
        </g>
    </g>
</svg>