<svg xmlns="http://www.w3.org/2000/svg" width="28" height="21" viewBox="0 0 28 21">
    <g>
        <g>
            <path fill="#f77007"
                d="M28 13.901c0 .799-.552 1.757-1.257 2.183l-7.514 4.534c-.42.254-.836.382-1.229.382-.248 0-.49-.058-.71-.174-.55-.29-.851-.888-.851-1.684 0-1.46 1.01-3.213 2.298-3.99l7.935-4.79L11.1 1 2.686 6C1.731 6.62.923 8 .923 9.103v.236c0 1.083.808 2.484 1.763 3.061l12.88 7.772c.215.13.28.404.144.61a.463.463 0 0 1-.636.14l-12.88-7.773C1 12.406 0 10.733 0 9.339v-.236C0 7.71 1 6 2.194 5.293l8.66-5.225a.618.618 0 0 1 .492 0L27.784 10c.135.07.216.21.216.363a.438.438 0 0 1-.216.374L19.23 15.9c-1.012.61-1.867 2.1-1.867 3.242 0 .452.136.784.373.91.265.125.603.058 1.002-.183l7.514-4.534c.44-.265.826-.935.826-1.434 0-.185-.077-.254-.077-.26 0-.008-.093-.015-.257.084L19 18.402a.481.481 0 0 1-.644-.139.432.432 0 0 1 .145-.61L26.25 13c.42-.277.859-.317 1.205-.134.346.134.544.56.544 1.035zm-6.482-3.164L10.854 4.301a.432.432 0 0 1-.145-.61.474.474 0 0 1 .637-.138L22 10c.226.119.29.392.155.598a.474.474 0 0 1-.636.139zm-1.844 1.174l-4.505-2.707c-.169-.13-.282-.403-.169-.61a.507.507 0 0 1 .659-.14l4.505 2.708c.216.13.281.403.146.61a.487.487 0 0 1-.391.228c-.084 0-.169 0-.245-.089zm-1.356.424c.217.13.282.402.147.61a.466.466 0 0 1-.392.208.502.502 0 0 1-.244-.067l-4.54-2.717c-.216-.13-.289-.369-.146-.61a.473.473 0 0 1 .635-.14zM9.427 4.71l4.506 2.707c.133.08.215.22.216.372a.438.438 0 0 1-.211.375l-1.034.64a.474.474 0 0 1-.638-.131.431.431 0 0 1 .137-.612l.425-.263-3.646-2.191-2.966 1.79 3.7 2.205.773-.48c.214-.122.5-.122.638.132a.431.431 0 0 1-.137.612l-1.019.63a.476.476 0 0 1-.494.004L5.102 7.776c-.102-.08-.217-.222-.217-.374 0-.153.115-.295.215-.401l3.836-2.29c.15-.09.34-.09.49 0zm6.801 9.617A.389.389 0 0 1 16 14.26l-4.59-2.726a.432.432 0 0 1-.148-.61.473.473 0 0 1 .636-.141l4.574 2.726a.432.432 0 0 1 .149.609.466.466 0 0 1-.393.209zM3.93 8.315L15.22 15c.217.172.283.445.149.652a.457.457 0 0 1-.369.21.5.5 0 0 1-.267-.068L3.443 9.066a.432.432 0 0 1-.15-.609.473.473 0 0 1 .637-.142z" />
        </g>
    </g>
</svg>