<svg width="25" height="26" viewBox="0 0 25 26" fill="none" xmlns="http://www.w3.org/2000/svg">
    <path
        d="M20 8.902L22 7.42C23.3315 9.3028 24.0507 11.55 24.06 13.856C24.06 14.205 24 14.549 24 14.892L20 8.902ZM19.16 23.051V18.571C19.596 18.516 20 18.281 20.233 17.925C20.481 17.561 20.556 17.11 20.439 16.688L21.317 15.834L21.674 16.354C21.934 16.734 22.451 16.854 22.86 16.631L23.832 16.091C23.254 18.908 21.58 21.401 19.159 23.051H19.16ZM18.573 17.631L18.567 17.628L15.643 15.664C15.5411 15.5998 15.4191 15.5755 15.3004 15.5958C15.1817 15.6161 15.0747 15.6796 15 15.774C14.884 16 14.935 16.24 15.137 16.376L18 18.28C18.1368 18.3802 18.2294 18.5295 18.2585 18.6966C18.2876 18.8636 18.2508 19.0354 18.156 19.176C18 19.473 17.542 19.556 17.236 19.36L14.307 17.396C14.2095 17.3306 14.0904 17.3055 13.9748 17.326C13.8592 17.3466 13.7561 17.4111 13.687 17.506C13.547 17.704 13.599 18 13.801 18.109L15.941 19.544C16.249 19.754 16.334 20.164 16.132 20.474C16.0327 20.6166 15.8824 20.7157 15.7122 20.7509C15.542 20.7861 15.3647 20.7546 15.217 20.663L13.625 19.565C13.5275 19.4988 13.4082 19.4726 13.292 19.4918C13.1757 19.511 13.0712 19.574 13 19.668C12.9672 19.7147 12.944 19.7674 12.9317 19.8231C12.9195 19.8788 12.9185 19.9364 12.9287 19.9925C12.9389 20.0487 12.9602 20.1022 12.9914 20.15C13.0225 20.1978 13.0628 20.2389 13.11 20.271L13.932 20.838C14 20.87 14 20.904 14 20.941C14.3 21.174 14.328 21.554 14.112 21.819C13.896 22.083 13.508 22.143 13.218 22L11.761 21C12 20.633 12.078 20.143 11.876 19.727C11.673 19.31 11.256 19 10.784 19C10.7804 18.7024 10.6712 18.4157 10.476 18.191C10.3422 18.0398 10.1761 17.9207 9.99004 17.8424C9.80395 17.7642 9.60262 17.7288 9.401 17.739C9.39212 17.475 9.31363 17.2181 9.1735 16.9942C9.03337 16.7703 8.83656 16.5874 8.603 16.464C8.36637 16.3371 8.1014 16.2724 7.83292 16.2759C7.56445 16.2794 7.30125 16.351 7.068 16.484C6.98206 16.2397 6.82729 16.0256 6.62235 15.8673C6.41741 15.709 6.17106 15.6134 5.913 15.592C5.569 15.562 5.227 15.666 5 15.881L4.353 16.338L3.659 15.8L6.775 11.258H10.685C10.5031 11.4111 10.3697 11.6139 10.3012 11.8415C10.2326 12.0692 10.2319 12.3119 10.299 12.54C10.436 13 10.837 13.349 11.328 13.425C12.1512 13.5387 12.9899 13.421 13.75 13.085L14.886 13.788C14.9212 13.8073 14.96 13.8192 15 13.823L19.309 16.541C19.3947 16.5982 19.467 16.6733 19.521 16.761L19.528 16.775C19.67 17 19.613 17.359 19.389 17.56C19.2788 17.658 19.1399 17.718 18.9929 17.7309C18.846 17.7439 18.6987 17.7092 18.573 17.632V17.631ZM6.23901 23.336V20.33C6.27101 20.334 6.301 20.344 6.333 20.347C6.377 20.35 6.421 20.352 6.465 20.352L6.485 20.35C6.497 20.632 6.605 20.901 6.792 21.117C7 21.407 7.41801 21.575 7.81001 21.574C8.00001 21.574 8.121 21.547 8.268 21.494C8.318 21.669 8.40601 21.833 8.52701 22.001C8.78001 22.261 9.151 22.428 9.542 22.427C9.854 22.427 10.155 22.321 10.393 22.126L11.079 21.61L12.725 22.679C13.18 23.001 13.76 23.001 14.255 22.788C14.749 22.561 15.084 22.098 15.138 21.57C15.584 21.7 16.067 21.629 16.452 21.374C16.6406 21.2505 16.7987 21.0858 16.9144 20.8923C17.0301 20.6988 17.1004 20.4816 17.12 20.257C17.3739 20.3385 17.6443 20.3543 17.906 20.303C18 20.277 18.153 20.235 18.268 20.181V23.601C16.4225 24.6365 14.333 25.1581 12.2173 25.1115C10.1016 25.0649 8.03716 24.4518 6.23901 23.336ZM10.385 20C10.4355 19.938 10.5038 19.8929 10.5807 19.8709C10.6576 19.849 10.7394 19.8511 10.815 19.877C11 19.925 11.075 20 11.105 20.197C11.1176 20.2678 11.1147 20.3404 11.0966 20.41C11.0784 20.4795 11.0455 20.5444 11 20.6L9.833 21.452C9.77525 21.5026 9.70539 21.5374 9.63022 21.553C9.55504 21.5686 9.47712 21.5644 9.40401 21.541C9.34867 21.5868 9.28242 21.6176 9.2117 21.6303C9.14098 21.643 9.06818 21.6372 9.00035 21.6135C8.93253 21.5897 8.87199 21.5489 8.82459 21.4949C8.7772 21.4409 8.74457 21.3755 8.72986 21.3052C8.71515 21.2349 8.71886 21.1619 8.74064 21.0935C8.76242 21.025 8.80152 20.9633 8.85415 20.9144C8.90678 20.8655 8.97116 20.831 9.04104 20.8143C9.11092 20.7976 9.18394 20.7992 9.25301 20.819L9.37101 20.729L10.385 20ZM9.898 19.06C9.88944 19.1671 9.83917 19.2666 9.75801 19.337L8.821 20L8.693 20.144L8.69 20.148L8.087 20.606C8 20.716 7.762 20.737 7.605 20.659C7.52906 20.6218 7.46605 20.5626 7.42415 20.4891C7.38224 20.4157 7.36338 20.3313 7.37 20.247C7.378 20.141 7.428 20 7.51 20L8.53 19.195L8.85701 18.949L8.867 18.939L9.181 18.701C9.27059 18.6288 9.38428 18.5934 9.499 18.602C9.61353 18.6107 9.72011 18.6638 9.796 18.75C9.83302 18.7921 9.86114 18.8413 9.87867 18.8946C9.8962 18.9479 9.90278 19.0041 9.898 19.06V19.06ZM6 19.254C5.837 19.123 5.78 18.999 5.796 18.781C5.80999 18.6178 5.88243 18.4651 6 18.351L7.418 17.296C7.695 17.068 8.108 17.096 8.349 17.359C8.59 17.623 8.572 17.999 8.307 18.266L8 18.522L6.894 19.33C6.75817 19.4431 6.58305 19.4978 6.407 19.482C6.23 19.468 6.067 19.386 6 19.254ZM4.407 17.39L5.52201 16.553C5.61068 16.4799 5.72446 16.4443 5.839 16.454C6.079 16.474 6.257 16.678 6.238 16.912C6.22581 17.0173 6.17696 17.115 6.10001 17.188L5 18C4.91615 18.0798 4.80479 18.1244 4.689 18.1244C4.57322 18.1244 4.46186 18.0798 4.378 18C4.30218 17.9148 4.26283 17.8033 4.26845 17.6894C4.27406 17.5755 4.32417 17.4683 4.408 17.391L4.407 17.39ZM1.127 16.093L2.095 16.631C2.22897 16.7043 2.37931 16.7425 2.532 16.742C2.759 16.742 3 16.658 3.143 16.507L3.66 16.907C3.47187 17.1383 3.37184 17.4288 3.3777 17.7269C3.38356 18.0249 3.49493 18.3113 3.692 18.535C4 18.881 4.454 18.999 4.912 18.999C4.94 19.285 5.06601 19.577 5.27201 19.814C5.29501 19.84 5.323 19.861 5.348 19.886V22.724C3.18702 21.096 1.68808 18.741 1.128 16.094L1.127 16.093ZM0.893005 13.855C0.892148 11.5391 1.63028 9.28339 3 7.416L5 8.902L0.947005 14.892C0.912658 14.5477 0.894637 14.202 0.893005 13.856V13.855ZM5.348 5V8.088L3.516 6.727C4.05755 6.08216 4.67236 5.50258 5.348 5V5ZM5.686 9.43L6.528 10.056L2.535 15.879L1.671 15.399L5.686 9.43ZM6.23901 2.165C6.24001 1.448 6.83801 0.867 7.576 0.866H18.725C18.4313 1.23552 18.2704 1.69301 18.268 2.165V9.081L17.878 9.371C17.7088 9.49876 17.5931 9.68475 17.5532 9.89295C17.5133 10.1011 17.5521 10.3167 17.662 10.498L16.518 10.801L14.85 10.111C14.821 10.0989 14.7909 10.0898 14.76 10.084C13.162 9.785 12.332 10.072 11.902 10.392H7.348C7.42478 10.2152 7.43918 10.0176 7.38885 9.83149C7.33852 9.64542 7.22644 9.48199 7.071 9.368L6.23901 8.75V2.165V2.165ZM20.813 15.1L19.947 15.942C19.8997 15.8972 19.8496 15.8555 19.797 15.817L15.391 13.059C15.37 13 15.349 13 15.327 13L14 12.225C13.9344 12.1829 13.8585 12.1596 13.7805 12.1577C13.7026 12.1557 13.6256 12.1752 13.558 12.214C12.9133 12.5356 12.188 12.6598 11.473 12.571C11.3925 12.5627 11.317 12.5284 11.258 12.4731C11.1989 12.4178 11.1596 12.3447 11.146 12.265C11.1303 12.1821 11.1423 12.0963 11.1801 12.0208C11.2178 11.9453 11.2793 11.8842 11.355 11.847C11.689 11.678 12 11.474 12.29 11.238C12.3204 11.2132 12.3455 11.1826 12.364 11.148C12.3778 11.1302 12.3935 11.1141 12.411 11.1C12.541 11 13.081 10.662 14.546 10.926L16.311 11.656C16.4035 11.6946 16.5061 11.7016 16.603 11.676L18.178 11.259L20.813 15.1ZM18.423 10.056L19.266 9.429L23.281 15.397L22.417 15.876L18.423 10.056ZM19.159 4.763H19.295C20.0854 5.3284 20.8032 5.98905 21.432 6.73L19.159 8.419V4.763ZM19.159 2.165C19.159 1.448 19.757 0.866 20.495 0.866C21.234 0.866 21.832 1.448 21.832 2.165V3.897H19.159V2.165ZM22.435 6.566C22.43 6.558 22.428 6.548 22.422 6.539C22.417 6.533 22.41 6.53 22.405 6.525C21.9017 5.8829 21.3356 5.29264 20.715 4.763H22.278C22.3955 4.76322 22.5085 4.71767 22.593 4.636C22.634 4.59628 22.6667 4.54873 22.689 4.49617C22.7113 4.44361 22.7229 4.38711 22.723 4.33V2.165C22.722 1 21.725 0 20.495 0H7.575C6.347 0 5.35 1 5.349 2.165V3.913C4.28525 4.63319 3.34024 5.51477 2.548 6.526C2.543 6.531 2.536 6.534 2.532 6.539C2.527 6.546 2.526 6.553 2.522 6.559C-1.362 11.557 -0.690995 18.606 4.07 22.825C8.829 27 16.113 27 20.876 22.831C25.639 18.614 26.315 11.566 22.436 6.566H22.435Z"
        fill="#F56D08" />
    <path
        d="M12.45 13C15.488 13 18 10.538 18 7.5C18 4.462 15.488 2 12.45 2C9.412 2 7 4.462 7 7.5C7 10.538 9.412 13 12.45 13Z"
        fill="white" />
    <path
        d="M12.45 13C15.488 13 18 10.538 18 7.5C18 4.462 15.488 2 12.45 2C9.412 2 7 4.462 7 7.5C7 10.538 9.412 13 12.45 13Z"
        stroke="#F56D08" stroke-miterlimit="20" />
    <path d="M12.5055 4.00896L12.5055 10.783M15.8925 7.396L9.11845 7.396L15.8925 7.396Z"
        stroke="#F56D08" stroke-miterlimit="20" stroke-linecap="round" />
</svg>