<svg xmlns="http://www.w3.org/2000/svg" width="28" height="20" viewBox="0 0 28 20">
    <g fill="none" fill-rule="nonzero">
        <path fill="#F9F9F9"
            d="M2.231 15.077a.438.438 0 0 1-.437-.438V4.536A2.257 2.257 0 0 1 4.05 2.283h6.716a.437.437 0 1 1 0 .875H4.05c-.763.001-1.38.618-1.381 1.38V14.64a.437.437 0 0 1-.438.437zm25.157.99a.438.438 0 0 1 .439.437v.037a3.29 3.29 0 0 1-3.289 3.284H3.29A3.29 3.29 0 0 1 0 16.541v-.037c0-.241.196-.437.438-.437h24.718V4.537a1.382 1.382 0 0 0-1.38-1.38h-2.572a.437.437 0 1 1 0-.874h2.571a2.257 2.257 0 0 1 2.256 2.253v11.531h1.357zm-2.851 2.884a2.416 2.416 0 0 0 2.38-2.01H.908a2.416 2.416 0 0 0 2.38 2.01h21.249zm-9.028-1.442a.437.437 0 1 1 0 .874h-3.194a.437.437 0 1 1 0-.874h3.194z" />
        <path fill="#FFF"
            d="M16.4 12.998h-.01c-.81-.006-1.494-.727-1.494-1.574V4.849c0-.599.33-1.128.863-1.38a1.45 1.45 0 0 1 1.58.205l3.155 2.407c.22.168.265.486.101.71a.488.488 0 0 1-.693.105L16.736 4.48a.487.487 0 0 0-.56-.09.502.502 0 0 0-.29.459v6.575c0 .327.27.557.51.558.102 0 .22-.015.36-.214l1.608-2.383a.492.492 0 0 1 .407-.219l2.64-.002c.253-.013.41-.208.467-.373.037-.106.074-.307-.101-.466a.517.517 0 0 1-.041-.717.487.487 0 0 1 .7-.042c.432.394.576.995.375 1.569-.214.61-.752 1.02-1.37 1.044h-.018l-2.392.003-1.463 2.168a.358.358 0 0 1-.004.006c-.293.42-.695.642-1.164.642zm-.914-10.144a.515.515 0 0 0 .188-.691L14.807.588a.49.49 0 0 0-.675-.192.515.515 0 0 0-.188.692l.867 1.574a.493.493 0 0 0 .675.192zm-1.075 1.151a.512.512 0 0 0-.265-.665l-1.536-.66a.491.491 0 0 0-.649.272.512.512 0 0 0 .266.665l1.536.66c.062.027.127.04.191.04a.495.495 0 0 0 .457-.312zm3.113-1.644l.52-1.701a.51.51 0 0 0-.324-.637.493.493 0 0 0-.621.333l-.52 1.701a.51.51 0 0 0 .324.637.497.497 0 0 0 .621-.333zm1.356 1.248l1.288-.964a.516.516 0 0 0 .108-.71.488.488 0 0 0-.693-.11l-1.288.964a.516.516 0 0 0-.108.71.491.491 0 0 0 .693.11zm-6.2 3.183l1.388-.584a.512.512 0 0 0 .27-.663.491.491 0 0 0-.646-.276l-1.388.584a.512.512 0 0 0-.27.662.496.496 0 0 0 .647.277z" />
    </g>
</svg>