<svg width="32px" height="32px" viewBox="0 0 32 32" version="1.1" xmlns="http://www.w3.org/2000/svg"
    xmlns:xlink="http://www.w3.org/1999/xlink">
    <title>İngiltere 2 </title>
    <defs>
        <rect id="path-1" x="0" y="0" width="32" height="32"></rect>
        <path
            d="M16,16 L32,16 L32,32 L16,16 Z M16,16 L16,32 L0,32 L16,16 Z M16,16 L0,16 L0,0 L16,16 Z M16,16 L16,0 L32,0 L16,16 Z"
            id="path-3"></path>
    </defs>
    <g id="One-Page-Figmobi-UI" stroke="none" stroke-width="1" fill="none" fill-rule="evenodd">
        <g id="İngiltere-2-">
            <rect id="path-1" fill="#D8D8D8" fill-rule="nonzero" x="0" y="0" width="32" height="32"></rect>
            <g id="gb-nir-Clipped">
                <mask id="mask-2" fill="white">
                    <use xlink:href="#path-1"></use>
                </mask>
                <g id="path-1"></g>
                <g id="gb-nir" mask="url(#mask-2)">
                    <g id="Group">
                        <polygon id="Path" fill="#00247D" fill-rule="nonzero"
                            points="0 0 0 32 32 32 32 0"></polygon>
                        <path d="M0,0 L32,32 M32,0 L0,32" id="Shape" stroke="#FFFFFF"
                            stroke-width="3.2" fill="#000000" fill-rule="nonzero"></path>
                        <g id="Shape-Clipped">
                            <mask id="mask-4" fill="white">
                                <use xlink:href="#path-3"></use>
                            </mask>
                            <g id="path-3"></g>
                            <path d="M0,0 L32,32 M32,0 L0,32" id="Shape" stroke="#CF142B"
                                stroke-width="2.13333333" fill="#000000" fill-rule="nonzero"
                                mask="url(#mask-4)"></path>
                        </g>
                        <path d="M16,0 L16,32 M0,16 L32,16" id="Shape" stroke="#FFFFFF"
                            stroke-width="5.33333333" fill="#000000" fill-rule="nonzero"></path>
                        <path d="M16,0 L16,32 M0,16 L32,16" id="Shape" stroke="#CF142B"
                            stroke-width="3.2" fill="#000000" fill-rule="nonzero"></path>
                    </g>
                </g>
            </g>
        </g>
    </g>
</svg>