<svg width="32px" height="32px" viewBox="0 0 32 32" version="1.1" xmlns="http://www.w3.org/2000/svg"
    xmlns:xlink="http://www.w3.org/1999/xlink">
    <title>Türkiye </title>
    <g id="One-Page-Figmobi-UI" stroke="none" stroke-width="1" fill="none" fill-rule="evenodd">
        <g id="Türkiye-" fill-rule="nonzero">
            <rect id="Rectangle" fill="#E30A17" x="0" y="0" width="32" height="32"></rect>
            <path
                d="M14,8 C16.8467768,8 19.3462609,9.48693728 20.7641584,11.7265182 C19.5924213,10.4210743 17.8920967,9.6 16,9.6 C12.4653776,9.6 9.6,12.4653776 9.6,16 C9.6,19.5346224 12.4653776,22.4 16,22.4 C17.8920967,22.4 19.5924213,21.5789256 20.7641584,20.2736448 C19.3462609,22.5130628 16.8467768,24 14,24 C9.581722,24 6,20.418278 6,16 C6,11.581722 9.581722,8 14,8 Z"
                id="Combined-Shape" fill="#FFFFFF"></path>
            <polygon id="Path" fill="#FFFFFF"
                points="20.33336 16 27.5694 18.35116 23.09724 12.19576 23.09724 19.80424 27.5694 13.64884"></polygon>
        </g>
    </g>
</svg>